<?xml version="1.0" encoding="UTF-8"?>
<svg id="Layer_2" data-name="Layer 2" xmlns="http://www.w3.org/2000/svg" viewBox="0 0 450.82 400.29">
  <defs>
    <style>
      .cls-1 {
        fill: #ddb44b;
        stroke: #ddb44b;
        stroke-miterlimit: 10;
        stroke-width: 3px;
      }
    </style>
  </defs>
  <path class="cls-1" d="M315.27,368.32c-18.01,24.98-40.81,23.18-47.75,28.42-3.77,2.85-4.68,2.2-8.77,1.22-9.34-2.23-19.86-3.4-26.98-11.04-3.55-3.81-7.12-8.87-9.23-13.83l-17-39.83c-6.31-14.79-9.67-29.96-13.43-46.44-6.69,7.21-12.11,15.16-21.06,19.1-5.17,2.27-10.32,4.18-15.2,7.11-14.27,8.58-29.86,10.73-45.82,6.2l-22.31-6.33c-6.11-1.73-9.4-7.31-12.54-12.16-10.4-.98-20.27-5.3-24.47-15.42l-11.05-26.63c-2.51-6.05-5.75-11.46-11.12-15.46l16.99-9.03,22.59-13.29-21.85-9.34c-11.28-4.82-21.5-11.97-29.17-21.73l-10.35-17.26c-15.32-25.55,5.94-45.56,24.84-64.86l16.53-16.88c7.73-7.9,28.15-10.01,42.3-9.42l-5.32-18.58c-2.12-7.39-9.59-11.44-10.47-18.17,21.42-14.13,48.56-13.42,73.54-5.54-.43-13.28,4.34-24.65,5.44-36.92,17.89,7.82,43.95,8,55.91,15.32,10.52,6.44,13.94,19.97,16.79,20.87,2.33.74,4.82-10.92,20.69-18.25,17.36-8.02,36-13.28,55.49-12.64,17.01.56,36.61,10.15,44.47,25.69,4.06,8.03,8.36,14.08,13.94,21.08,6.35,7.98,10.96,18.95,12.24,29.18,1.37,10.9-2.09,21.1-4.92,31.49,13.12,2.46,25.98,4.76,37.29,11.65,12.66,7.71,21.59,15.34,36.41,9.75,2.08-.79,3.89-1.18,6.13-.98,2.89,15.42-12.16,30.3-25.76,41.02,4.91,4.07,12.1,5.32,17.94,2.85,3.09-1.31,5.48-2.72,8.98-1.51-3.35,33.69-2.74,51.21-33.67,67.74-9.61,5.14-19.29,7.79-30.02,10.15-22.79,5-45.75,6.57-68.87,3-17.73-2.73-38.13-14.18-45.88-31.1l-16.24-2.82,4.52,9.12c3.85,10.66,9.42,20.31,18.79,27.14l40.54,29.51c9.88,7.19,18.09,18.5,16.09,31.48-2.55,16.64-9.36,32.73-19.21,46.39ZM218.47,65.42c2.34-8.07,2.92-14.25,6.79-20.64-5.04-5.27-6.99-11.18-10.72-16.91-3.46-5.32-9.99-9.1-16.37-10.38l-40.14-8.05c-3.9,12.48-9.67,28.59-1.93,32.63l28.37,9.85c13.15-1.22,24.3,3.22,34,13.5ZM293.55,145.52c12.67-21.52,41.24-37.45,66.17-30.99,13.33-24.03,4.3-25.9,2.45-30.3l-8.88-21.14c-1.58-3.77-4.33-6.61-8.5-7.44-8.97-1.8-14.27-8.37-15.67-17.37-2.52-16.19-17.24-12.1-26.33-26.19-21.05-2.11-53.14,6.7-65.94,21.2-16.44,18.63-21.59,41.47-6.83,61.53,5.93,8.06,28.05,12.25,34.9,30.59,6.54,17.54-10.49,32.35-11.28,53.15,8.23-2.78,15.52-6.46,22.65-10.88,8.6-5.32,12.31-13.72,17.27-22.15ZM368.42,85.11c-1.11-11.05-5.5-22.18-13.06-29.73-5.04-5.03-9.19-9.26-11.79-16.14-4.72-12.5-15.16-22.43-28.89-24.24,1.12,3.92,4.44,5.42,7.37,6.87,16,7.88,6.85,26.95,25.17,30.76,10.56,2.2,11.23,23.84,21.2,32.49ZM150.6,87.16c9.04.13,16.53-1.84,24.68-3.62,18.51-4.04,32.32,2.98,49.43,10.5-2.7-8.56-5.42-15.3-6.36-23.97-6.77-5.62-14.43-13.16-23.67-13.32-8.72-.16-15.5-.94-23.42-4.53-27.38-12.41-65.27-23.31-89.87-5.58,21.62,1.45,30.76,3.78,42.09,20.96,13.71,20.8,42.41-1.7,42.55,2.34.01.35.33,1.2.12,1.48-.24.3-1.26.75-1.94.53-9.68,8.05-20.68,9.14-34.04,6.63,5.68,5.47,13.17,5.78,20.44,8.59ZM213.67,126.76c4-2.14,12.03-.68,14.66,1.81,3.31,3.14-1.06,6.57-2.83,10.36,7.61-1.31,12.65-11.34,9.59-19.03-4.32-10.87-16.02-14.98-27.26-13.22s-23.1,3.25-34.54.02c-5.84-1.65-12.36-3.56-17.55-6.84-9.18-5.8-17.07-13.28-26.45-18.53.56-1.67.49-3.06-.16-3.29l-2.76-.96c-8.21-2.87-15.79-26.98-40.29-24.79l5.67,17.02c4.31,12.95,10.2,24.08,20.57,33.17,12.85,11.26,26.82,20.62,41.54,29.64,8.93,5.47,16.78,10.53,23.6,18.81,7.89,9.56,16.06,18.43,25.03,27.16,8.92,8.68,5.81,23.73,10.63,27.18,1.23.88,5.32.14,5.05-1.1-2.13-9.6-1.4-18.29-1.99-27.46-.45-6.96-5.65-12.85-9.15-18.55-6.49-10.56-5.29-24.97,6.66-31.38ZM217.85,155.04c-2.37-5.11-1.38-11.19.28-15.4.88-.3,3.69-1.65,3.09-2.53-2.21-2.24-5.11-3.1-8.13-4.72-6.77,5.21-7.55,14.9-2.55,21.94,4.53,6.38,7.41,12.75,9.73,21.06,7.49-6.6,15.4-11.43,24.48-14.68,7.19-2.57,11.3-8.51,14.35-15.03,4.75-10.19,3.01-20.39-4.88-28.3-5.62-5.63-12.37-9.06-19.2-13.11-11.52-6.83-22.48-13.4-35.48-17.07-9.64-2.72-18.72-1.55-28.44.64l-18.62,4.19c24.95,20.15,50.86,8.75,68.8,11.59,9.48,1.5,15.99,7.34,17.81,16.5,1.31,6.6.59,12.91-5.29,18.39,5.66,1.55,7.87,4.95,9.3,9.95l2.65,9.32c-7.64-.68-4.75-14.44-11.91-16.42-4.46,1.61-8.29,4.18-13.82,3.15-.86,4.06.3,7.23-2.16,10.53ZM88.19,146.15l-13.63-7.36c-8.44-4.56-21.12-22.9-17.05-25.61.62-.41,1.7.22,2.8,1.17,6.29,13.52,18.98,20.67,34.04,20.76l31.27-2.91,15.85-1.07-24.27-17.16c-18.47-13.06-24.99-27.24-24.68-27.12-5.75-2.24-28.04-.47-38.37,6.63-16.59,11.4-28.76,27.94-35.96,46.38-3.36,8.61-.48,15.17,5.42,21.14,6.28,6.36,10.75,14.28,18.13,19.73,29.67,21.91,59.13,23.75,94.01,20.67l16.59-1.47c2.64-.23,5.43.42,6.89-2.93-14.24-2.58-25.53-13.65-34.58-24.56-10.96-13.21-22.68-18.85-36.47-26.3ZM338.57,181.95c10.89-18.34,17.02-25.76,35.67-35.51,11.85-6.19,23.72-9.34,38.2-9.32l-15.67-9.76c-10.79-6.72-23.88-6.56-36.03-8.8-18.54-3.43-35.29.49-50,12.33-19.49,15.68-19.38,30.72-28.25,36.08l-25.8,15.57c-5.68,3.43-6.79,11.48-7.98,18.77,18.27-10.9,28.75.43,48.31,2.5,16.49,1.75,32.75-7.04,41.55-21.86ZM145.8,204.31l-22.57,1.25c-35.85,1.98-76.31-7-97.19-37.07-3.17-4.56-8.63-8.11-10.36-13.89-3.23-10.81.48-21.29,6.87-30.79-4.53,1.19-5.48,5.12-7.68,8.54-4.34,6.77-9.85,14.68-8.19,23.46,2.83,15.04,11.49,28.98,23.45,38.78,22.1,18.1,53.42,27.15,81.87,21.6l33.81-11.87ZM160.65,193.79l20.5,2.42c9.32,1.1,17.12,3.26,25.85,8.33.1-7.82-.69-14.89-4.63-20.87l-16.02-16.09-11.2-12.32c-10.1-13.32-24.6-21.16-42.02-20.93l-32.02,3.25c-8.2.83-15.41-.15-24.03-1.83,5.86,6.02,13.36,7.04,19.95,10.86,7.39,4.29,14.8,7.61,20.86,13.59l23.55,23.24c5.13,5.06,11.42,9.43,19.2,10.35ZM311.47,213.37l35.36,2.57c16.95-1.1,32.12-7.86,44.94-18.4,7.61-4.88,13.56-10.86,19.76-17.27l24.09-24.84c3.21-3.31,5.15-7.2,6.22-11.94l-12.33.59-18.85-3c-11.67-1.86-21.99,2.22-32.25,7.03-14.66,6.89-26.51,17.28-34.12,31.95-8.44,16.27-25.12,26.82-43.54,26.43-10.78-.23-20.67-2.8-30.72-5.78-10.33-3.07-23.33,3.59-27.48,13.14,7.44,3.44,14.9,5.82,22.88,7.41,12.92,2.57,28.16-9.18,46.03-7.88ZM234.37,209.39c-.37,1.52,2.26,1.94,2.93,1.37l1.81-1.52c4.68-6.96,7.62-15.03,8.96-23.45l3.53-22.34-14.37,5.12c-8.28,4.05-15.96,11.29-17.25,20.8-.85,6.28,1.52,12.48,2.71,18.26,2.78,1.26,4.74,1.82,7.83,1.85.28-25.88,10.32-26.45,3.86-.08ZM308.29,225.91l26.38,6.28c16.03,3.82,31.6,4.32,47.2-1.1,24.3-8.43,51.26-21.33,60.55-46.25-16.26,2.41-21.86-6.35-30.85,2.18-14.29,13.56-30.54,24.6-49.66,30.23-25.91,7.63-52.23-9.98-81.24,7.51l27.61,1.14ZM278.19,228.42c3.97,12.24,21.85,20.81,34.24,23.9,20.2,5.04,40.38,5.92,60.73,1.3,11.44-1.37,22.13-4.42,32.63-8.7,22.55-9.43,37.99-29.63,38.31-55.26-7.21,11.83-15.15,21.57-27.01,28.51-15.29,8.96-31.36,16.14-48.89,19.74l-11.16.8c-11.41-.44-22.18-3.09-33.01-6.54-15.1-4.81-30.19-5.98-45.85-3.75ZM91.87,295.23c27.23-10.17,40.9,5.71,58.17,3.84,7.94-.86,15.42-.02,23.41.82,3.28-.1,5.96-4.55,8.07-6.56,14.57-13.88,5.73-20.98,12.16-33.74l12.47-12.17c6.24-8.11,9.12-22.11,4.63-31.88-5.58-12.13-20.44-17.04-32.79-15.19l-16.6,2.49c-14.76,2.21-27.14,10.6-40.99,15.43-16.79,5.86-32.86-1.87-57.71,11.72l-25.5,13.95c6.58,6.3,6.07,14.29,15.65,16.04,17.36,3.16,10.55,21.78,19.79,24.51,11.73,3.46,14.27,12.6,19.25,10.74ZM264.41,392.76l9.43-2.45c20.64-3.71,36.23-16.67,45.46-35.31,5.48-11.07,11.66-22.38,11.35-35.45-.28-12.04-8.88-22.01-18.23-28.63l-33.3-23.58c-23.83-16.87-20.94-37.07-33.05-44.88-9.78-6.31-21.02-9.67-32.65-11.18,1.33,7.56,3.97,14.67,2.42,21.85l-4.76,22.06c-2.72,12.63,9.21,24.02,20.47,30.9,7.43,4.54,13.56,10.72,16.34,18.94,6.88,20.37-2.65,32.63,2.31,45.64,1.69,4.42,6.39,7.92,7.17,12.7-4.55,10.59,1.19,18.4,7.05,29.39ZM252.68,361.85c-2.06-5.55-8.12-11.2-7.37-17.79l1.9-16.6c1.4-12.26-.99-25.52-10.76-33.06l-21.21-16.36c-7.44-7.23-9.11-16.09-6.99-26.69l-10.28,9.41c-9.93,9.09,3.84,50.82,10.24,68.38,7.2,19.73,15.77,46.45,31.65,58.82,5.07,3.95,11.58,5.2,18.24,5.19-.43-10.03-9.5-14.27-5.42-31.3ZM149.13,302.27c-16.64,1.69-31.36-13.58-57.05-2.91-10.35,4.29-11.53-8.37-18.26-9.37-12.37-1.83-9.15-15.33-14.35-22.31-2.61-3.51-7.7-4.33-11.89-4.81.55,5.48,3.99,9.42,5.52,14.16,3.74,11.51,12.58,18.66,24.85,18.86,3.34,3.96,5.76,9.57,10.57,11.87,9.55,4.57,20.04,7.3,30.41,9.56,9.2,2.01,18.07.32,26.4-3.17l25.33-10.63c-7.47-3.62-14.02-2.01-21.53-1.25Z"/>
</svg>