<?xml version="1.0" encoding="UTF-8"?>
<svg id="Layer_2" data-name="Layer 2" xmlns="http://www.w3.org/2000/svg" viewBox="0 0 661.14 511.34">
  <defs>
    <style>
      .cls-1 {
        fill: #ddb44b;
      }
    </style>
  </defs>
  <path class="cls-1" d="M346.86,306.62c-8.9,12.67-8.64,30.56-19.95,40.07-9.89,8.31-29.29,14.38-28.3,8.34.45-2.79,2.03-5.24-.03-9.16-3.07,3.94-6.32,6.75-11.29,10.31,8.99,5.67,19.13,7.58,29.57,9.97,47.27,10.84,88.55-.34,130.9-21.48l25.64-14.5c13.64-7.71,25.54-17.96,35.46-30.07-10.75-3.83-20.06-4.49-30.81-4.91,1.62-4.09,5.56-5.98,9.96-5.7,9.63.59,19.13,1.87,28.19,5.18,2.83,1.04,2.28,5.82.56,7.98-10.76,13.53-23.51,24.29-38.13,33.81-36.97,24.05-83.8,43.09-129.29,40.99,1.65,9.54-2.87,17.14-11.19,20.41-33.85,13.35-57.24-11.06-75.93-15.45-1.55-.37-2.76-.87-2.76-2.33,0-3.97,8.81-2.9,17.18,1.06l21.08,9.97c14.36,6.79,38.77,5.39,44.43-5,1.07-1.96,1.39-7.52-1.04-8.64-20.01-3.49-39.42-7.1-58.12-14.76-2.67-1.09-4.38-2.5-4.27-6.33-12.24,1.11-22.91-5.15-28.29-16.03-5.61-11.34-3.99-23.95,3.71-34.74-14.8-15.2-27.68-30.77-37.87-48.98-16.79-30.01-21.67-70.88-16.25-104.71.43-2.67,1.92-4.54,3.63-5.06,5.56-1.69,6.71,3.84,11.67,7.26.99-22.91,9.09-43.29,24.07-59.9,25.35-28.12,49.77-39.59,84.41-20.11,21.85,12.29,39.15,30.66,50.8,52.81l5.98,17,6.92-6.33c2.38-2.18,5.95-.08,6.72,2.87l3.45,13.24c16.4-10.36,49.62-21.88,64.7-9.34,13.01,10.82,14.37,31.09,14.8,48.02l7.73,1.58c33.24,6.81,18.48,60.55.61,88.26-6.62,10.26-16.38,15.68-28.38,16.72l-44.01,3.84c-22.97,2-44.71,7.89-64.68,18.66-1.36-.18-2.99-1.47-3.06-2.31-.1-1.15.71-2.17,1.93-3.01,22.62-15.64,49.91-18.5,76.46-21.34l36.05-3.86c7.91-.85,14.1-5.43,18.37-12,11.15-17.11,18.14-36.48,18.43-57.04.09-6.37-1.55-12.17-5.81-16.37-7.8-7.71-18.12-4.51-20.13-6.03-3.63-2.74,1.39-20.82-6.93-41.29-3.02-7.43-9.13-11.88-17.02-12.37s-15.11.64-22.29,3.26l-21.33,7.78c-1.96.72-3.56-.22-5.27-1.33,7.62,37.66,5.96,76.88-21.4,104.67-8.51,8.64-18.29,14.4-28.87,20.63,13.43-.18,35.37-3.85,34.43,2.41-.73,4.88-21.4,3.75-35.19,23.39ZM366.51,161.28c3.61-3.26,6.9-6.4,9.86-10.53-23.69-11.32-51.14,5.3-67.47,23.91-6.65,7.58-11.55,15.77-16.46,24.51-.76,1.34-2.61,1.88-3.46,1.13-.54-.47-.99-2.11-.48-3.35,13.5-32.94,46.01-62.56,83.64-55.54-3.95-12.51-10.93-21.73-18.9-30.93-13.23-15.28-28.67-28.21-47.71-35.16-11.08-4.05-22.29-3.32-32.49,2.52-28.71,16.45-51.75,47.76-51.74,81.96l26.39,18.33c22.7,15.76,37.98,38.69,45.4,65.32l5.16,25.05c.3,1.48,3.49,2.95,4.71,2.8l5.54-30.31c6.17-22.06,17.69-41.63,33.83-57.84l24.18-21.86ZM308.69,286.75c6.52.24,9.81-1.36,14.34-2.85,15.94-5.29,30.88-12.26,43.5-23.65,30.68-27.69,33.01-74.29,22.4-113.91-6.19,7.83-12.82,14.51-20.3,21.05l-18.18,15.92c-20.37,18-33.44,41.87-38.22,68.8l-3.54,34.64ZM290.01,265.86c-1.72-14.9-4.87-27.33-10.13-39.95-9.47-20.76-24.98-36.6-43.87-49.19-9.33-6.23-18.13-11.75-27.55-19.33-.69,15.87,2.98,30.68,9.6,45.27,9.28,21.13,25.06,38.37,45.11,49.88l26.84,13.32ZM290.32,274.13l-28.22-14.48c-29.97-15.57-45.05-37.89-56.9-68.76-.33,23.15,6.69,43.48,16.4,63.16,10.06,17.74,22.02,33.67,37.13,47.64,8.44-10.88,20.1-16.03,33.81-15.74.21-2.9,1.3-10.02-2.22-11.82ZM298.01,336.12c4.47,3.9,7.28,8.21,8.92,13.6,13.52-3.11,22.52-13.08,25.62-26.58,3.97-17.25,14.76-29.96,31.28-37.16-12.82-.85-23.43,1.85-34.83,4.65-22.58,5.36-47-4.92-62.39,11.65-1.06,1.14-2.1,2.71-1.98,3.94s1.63,2.2,2.76,3.19l30.62,26.72ZM293.62,340.54l-6.26-7.21-28.2-22.58c-8.03,10.05-7.64,24.1.71,33.15,6.03,6.53,15.94,8.53,24.09,6.17,4.79-1.38,8.37-4.62,9.65-9.53Z"/>
  <path class="cls-1" d="M105.82,323.63l69.4,29.97c18.33,7.92,36.83,13.08,56.72,15.25,15.82,1.72,30.76-1.28,46.02-4.79,2.52-.58,5.14-.16,5.38,3.3-32.16,13.54-73.5,9.85-105.4-3.77l-65.04-27.78-25.39-13.58c-6.21-3.32-11.13-7.89-15.52-13.53-1.35-1.42-1.74-6.59.62-7.23,16.43-4.47,32.25-7.89,50.1-11.03-12.33-13.59-20.54-29.77-25.72-47.56-3.21-11.01-4.92-21.97-3.11-33.26,2.15-14.25,15.82-19.81,29.15-24.7-.83-11.72-.38-22.92,5.21-33,12.98-23.41,69.5-5.05,69.29.31-.05,1.4-1.78,3.22-3.62,2.72l-16.68-4.51c-9.8-2.65-20.02-3.41-29.96-1.64-18.89,3.37-16.07,23.92-16.76,42.18l-18.37,7.85c-18.12,7.75-8.24,38.94-.65,57.33,5.06,12.26,11,23.51,20.44,32.95,37.88-5.19,76.61-.16,109.22,19.49,1.37.83,1.86,2.5,1.56,3.6-.36,1.34-2.81,2.19-4.64,1.25-52.78-27.38-102.8-21.97-158.38-7.37,7.72,8.14,16.06,13.24,26.13,17.58Z"/>
</svg>